<mxfile host="app.diagrams.net" modified="2020-09-03T12:23:14.716Z" agent="5.0 (Windows NT 10.0; Win64; x64) AppleWebKit/537.36 (KHTML, like Gecko) Chrome/85.0.4183.83 Safari/537.36" etag="hcW7rKpJmZWyUv5RuDiT" version="13.6.6" type="github">
  <diagram id="F2CDSUy3b4C9-BUt5GaC" name="Page-1">
    <mxGraphModel dx="1422" dy="794" grid="1" gridSize="10" guides="1" tooltips="1" connect="1" arrows="1" fold="1" page="1" pageScale="1" pageWidth="827" pageHeight="1169" math="0" shadow="0">
      <root>
        <mxCell id="0" />
        <mxCell id="1" parent="0" />
        <mxCell id="lRf1ZTpZBx-51AyblKhx-1" value="" style="rounded=0;whiteSpace=wrap;html=1;" vertex="1" parent="1">
          <mxGeometry x="40" y="40" width="380" height="620" as="geometry" />
        </mxCell>
        <mxCell id="lRf1ZTpZBx-51AyblKhx-2" value="" style="rounded=0;whiteSpace=wrap;html=1;" vertex="1" parent="1">
          <mxGeometry x="40" y="40" width="380" height="60" as="geometry" />
        </mxCell>
        <mxCell id="lRf1ZTpZBx-51AyblKhx-3" value="Mapa" style="text;html=1;strokeColor=none;fillColor=none;align=center;verticalAlign=middle;whiteSpace=wrap;rounded=0;" vertex="1" parent="1">
          <mxGeometry x="70" y="50" width="90" height="40" as="geometry" />
        </mxCell>
        <mxCell id="lRf1ZTpZBx-51AyblKhx-4" value="" style="ellipse;whiteSpace=wrap;html=1;aspect=fixed;" vertex="1" parent="1">
          <mxGeometry x="215" y="620" width="30" height="30" as="geometry" />
        </mxCell>
        <mxCell id="lRf1ZTpZBx-51AyblKhx-5" value="" style="triangle;whiteSpace=wrap;html=1;rotation=-179;" vertex="1" parent="1">
          <mxGeometry x="102.41" y="620" width="25" height="30" as="geometry" />
        </mxCell>
        <mxCell id="lRf1ZTpZBx-51AyblKhx-6" value="" style="whiteSpace=wrap;html=1;aspect=fixed;" vertex="1" parent="1">
          <mxGeometry x="330" y="620" width="30" height="30" as="geometry" />
        </mxCell>
        <mxCell id="lRf1ZTpZBx-51AyblKhx-7" value="" style="shape=singleArrow;direction=west;whiteSpace=wrap;html=1;" vertex="1" parent="1">
          <mxGeometry x="60" y="65" width="17.59" height="10" as="geometry" />
        </mxCell>
        <mxCell id="lRf1ZTpZBx-51AyblKhx-17" value="Actor" style="shape=umlActor;verticalLabelPosition=bottom;verticalAlign=top;html=1;outlineConnect=0;fontSize=1;" vertex="1" parent="1">
          <mxGeometry x="215" y="400" width="30" height="60" as="geometry" />
        </mxCell>
        <mxCell id="lRf1ZTpZBx-51AyblKhx-18" value="" style="curved=1;endArrow=classic;html=1;fontSize=1;entryX=0.5;entryY=1;entryDx=0;entryDy=0;" edge="1" parent="1" source="lRf1ZTpZBx-51AyblKhx-17" target="lRf1ZTpZBx-51AyblKhx-19">
          <mxGeometry width="50" height="50" relative="1" as="geometry">
            <mxPoint x="390" y="430" as="sourcePoint" />
            <mxPoint x="440" y="380" as="targetPoint" />
            <Array as="points">
              <mxPoint x="440" y="430" />
              <mxPoint x="280" y="370" />
            </Array>
          </mxGeometry>
        </mxCell>
        <mxCell id="lRf1ZTpZBx-51AyblKhx-19" value="" style="triangle;whiteSpace=wrap;html=1;fontSize=1;rotation=90;" vertex="1" parent="1">
          <mxGeometry x="320" y="250" width="20" height="30" as="geometry" />
        </mxCell>
        <mxCell id="lRf1ZTpZBx-51AyblKhx-20" value="" style="verticalLabelPosition=bottom;shadow=0;dashed=0;align=center;html=1;verticalAlign=top;strokeWidth=1;shape=mxgraph.mockup.misc.map;fontSize=1;" vertex="1" parent="1">
          <mxGeometry x="40" y="100" width="380" height="500" as="geometry" />
        </mxCell>
        <mxCell id="lRf1ZTpZBx-51AyblKhx-15" value="" style="ellipse;whiteSpace=wrap;html=1;aspect=fixed;" vertex="1" parent="1">
          <mxGeometry x="330" y="500" width="50" height="50" as="geometry" />
        </mxCell>
        <mxCell id="lRf1ZTpZBx-51AyblKhx-21" value="" style="shape=mxgraph.signs.tech.camera_2;html=1;fillColor=#000000;strokeColor=none;verticalLabelPosition=bottom;verticalAlign=top;align=center;fontSize=1;" vertex="1" parent="1">
          <mxGeometry x="340" y="514" width="30" height="22" as="geometry" />
        </mxCell>
        <mxCell id="lRf1ZTpZBx-51AyblKhx-22" value="" style="html=1;verticalLabelPosition=bottom;align=center;labelBackgroundColor=#ffffff;verticalAlign=top;strokeWidth=2;strokeColor=#0080F0;shadow=0;dashed=0;shape=mxgraph.ios7.icons.location;fontSize=1;" vertex="1" parent="1">
          <mxGeometry x="316" y="210" width="24" height="30" as="geometry" />
        </mxCell>
        <mxCell id="lRf1ZTpZBx-51AyblKhx-23" value="" style="html=1;verticalLabelPosition=bottom;labelBackgroundColor=#ffffff;verticalAlign=top;shadow=0;dashed=0;strokeWidth=2;shape=mxgraph.ios7.misc.current_location;strokeColor=#ffffff;fillColor=#0080F0;fontSize=1;" vertex="1" parent="1">
          <mxGeometry x="210" y="360" width="60" height="60" as="geometry" />
        </mxCell>
        <mxCell id="lRf1ZTpZBx-51AyblKhx-25" value="" style="edgeStyle=elbowEdgeStyle;elbow=horizontal;endArrow=classic;html=1;fontSize=1;exitX=0.583;exitY=0.567;exitDx=0;exitDy=0;exitPerimeter=0;entryX=0.417;entryY=0.467;entryDx=0;entryDy=0;entryPerimeter=0;" edge="1" parent="1" source="lRf1ZTpZBx-51AyblKhx-23" target="lRf1ZTpZBx-51AyblKhx-22">
          <mxGeometry width="50" height="50" relative="1" as="geometry">
            <mxPoint x="390" y="430" as="sourcePoint" />
            <mxPoint x="440" y="380" as="targetPoint" />
          </mxGeometry>
        </mxCell>
      </root>
    </mxGraphModel>
  </diagram>
</mxfile>
